<svg height="512pt" viewBox="0 0 512 512" width="512pt" xmlns="http://www.w3.org/2000/svg"><path d="m497 378.46875h-482c-8.285156 0-15-6.71875-15-15v-59.269531c0-8.285157 6.714844-15 15-15h482c8.285156 0 15 6.714843 15 15v59.269531c0 8.28125-6.714844 15-15 15zm0 0" fill="#9adb05"/><path d="m497 512h-482c-8.285156 0-15-6.714844-15-15v-59.265625c0-8.285156 6.714844-15 15-15h482c8.285156 0 15 6.714844 15 15v59.265625c0 8.285156-6.714844 15-15 15zm0 0" fill="#00a863"/><path d="m0 363.46875h512v74.265625h-512zm0 0" fill="#00ca76"/><path d="m464.867188 319.199219h-192.800782c-8.285156 0-15-6.714844-15-15v-108.53125c0-3.980469 1.578125-7.792969 4.394532-10.605469l96.398437-96.402344c2.8125-2.8125 6.628906-4.394531 10.605469-4.394531 3.980468 0 7.796875 1.582031 10.605468 4.394531l96.402344 96.402344c2.8125 2.8125 4.390625 6.625 4.390625 10.605469v108.53125c.003907 8.285156-6.714843 15-14.996093 15zm0 0" fill="#bb8272"/><path d="m479.867188 289.199219v-93.53125c0-3.980469-1.582032-7.792969-4.394532-10.605469l-96.398437-96.402344c-2.8125-2.8125-6.628907-4.394531-10.605469-4.394531v219.933594h96.398438c8.28125 0 15-6.714844 15-15zm0 0" fill="#875140"/><path d="m400.601562 319.199219h-64.269531c-8.28125 0-15-6.714844-15-15v-80.332031c0-8.285157 6.71875-15 15-15h64.269531c8.28125 0 15 6.714843 15 15v80.332031c0 8.285156-6.71875 15-15 15zm0 0" fill="#504541"/><path d="m415.601562 304.199219v-80.332031c0-8.285157-6.71875-15-15-15h-32.132812v110.332031h32.132812c8.28125 0 15-6.714844 15-15zm0 0" fill="#3d3532"/><path d="m486.394531 218.40625-117.925781-117.925781-117.929688 117.925781c-5.855468 5.859375-15.355468 5.859375-21.210937 0-5.859375-5.859375-5.859375-15.355469 0-21.214844l128.53125-128.53125c5.859375-5.859375 15.355469-5.859375 21.214844 0l128.53125 128.53125c5.859375 5.859375 5.859375 15.355469 0 21.214844s-15.355469 5.855469-21.210938 0zm0 0" fill="#d9c5aa"/><path d="m507.605469 218.40625c5.859375-5.859375 5.859375-15.355469 0-21.214844l-128.53125-128.53125c-2.929688-2.929687-6.769531-4.394531-10.605469-4.394531v36.214844l117.925781 117.925781c5.855469 5.855469 15.351563 5.859375 21.210938 0zm0 0" fill="#c8af8c"/><path d="m159.601562 142.46875h-112.46875c-25.988281 0-47.132812-21.144531-47.132812-47.132812 0-25.757813 20.800781-47.136719 47.132812-47.136719h1.503907c3.4375-27.140625 26.671875-48.199219 54.730469-48.199219 28.058593 0 51.292968 21.058594 54.730468 48.199219h1.503906c25.796876 0 47.132813 20.847656 47.132813 47.132812 0 25.992188-21.144531 47.136719-47.132813 47.136719zm0 0" fill="#ebf5ff"/><path d="m159.601562 142.46875c25.988282 0 47.132813-21.144531 47.132813-47.132812 0-26.289063-21.335937-47.136719-47.132813-47.136719h-1.503906c-3.4375-27.140625-26.671875-48.199219-54.730468-48.199219v142.46875zm0 0" fill="#cbdfee"/><path d="m497 289.199219h-192.816406c-114.566406 0-207.757813 93.207031-207.765625 207.792969l-.019531 15.007812h64.269531l351.332031-158.53125v-49.269531c0-8.285157-6.714844-15-15-15zm0 0" fill="#d0e95a"/><path d="m512 304.199219c0-8.285157-6.714844-15-15-15h-128.53125v129.035156l143.53125-64.765625zm0 0" fill="#9adb05"/><path d="m304.199219 353.46875c-79.382813 0-143.515625 64.246094-143.523438 143.523438h-.011719v15.007812h64.269532l287.066406-94.265625v-64.265625zm0 0" fill="#9adb05"/><path d="m512 353.46875h-143.53125v111.398438l143.53125-47.132813zm0 0" fill="#00ca76"/><path d="m304.199219 417.734375c-43.703125 0-79.261719 35.554687-79.265625 79.257813v15.007812h272.066406c8.285156 0 15-6.714844 15-15v-79.265625zm0 0" fill="#00ca76"/><path d="m368.46875 512h128.53125c8.285156 0 15-6.714844 15-15v-79.265625h-143.53125zm0 0" fill="#00a863"/></svg>