<svg height="512pt" viewBox="0 0 512 512.00014" width="512pt" xmlns="http://www.w3.org/2000/svg"><path d="m512 150.070312v247.171876c-44.136719 0-44.136719 44.136718-79.449219 52.964843-64.527343 8.03125-77.417969-42.8125-79.183593-71.855469 8.035156-43.257812-17.917969-60.558593-17.917969-60.558593l.265625-1.414063 4.058594.707032c2.808593.429687 5.652343-.484376 7.679687-2.46875l21.1875-21.1875c1.355469-1.375 3.121094-2.273438 5.03125-2.5625l52.171875-7.414063c3.949219-.570313 7.023438-3.71875 7.503906-7.679687l7.0625-56.144532c.53125-4.421875 4.28125-7.753906 8.738282-7.765625h30.542968c3.542969-.003906 6.738282-2.125 8.121094-5.386719zm0 0" fill="#c9ced1"/><path d="m512 397.242188v114.757812s-8.828125-70.621094-79.449219-61.792969c35.3125-8.828125 35.3125-52.964843 79.449219-52.964843zm0 0" fill="#a5b4b4"/><path d="m512 512h-185.378906c0-17.65625-26.484375-35.308594-17.65625-61.792969s35.3125-26.484375 44.140625-70.621093c.085937-.441407.175781-.882813.261719-1.234376 1.765624 29.042969 14.65625 79.886719 79.183593 71.855469 70.621094-8.828125 79.449219 61.792969 79.449219 61.792969zm0 0" fill="#919d9e"/><path d="m353.367188 378.351562c-.085938.351563-.175782.792969-.261719 1.234376-8.828125 44.136718-35.3125 44.136718-44.140625 70.621093s-44.136719 26.484375-44.136719 61.792969h-264.828125l102.136719-93.574219c2.332031-2.210937 5.707031-2.925781 8.738281-1.851562l68.679688 22.863281c3.507812 1.132812 7.355468.011719 9.707031-2.824219l98.78125-123.585937c2.023437-2.488282 5.222656-3.699219 8.386719-3.179688l39.285156 6.53125-.265625 1.414063s25.953125 17.300781 17.917969 60.558593zm0 0" fill="#a5b4b4"/><path d="m326.621094 512h-61.792969c0-35.308594 35.308594-35.308594 44.136719-61.792969-8.828125 26.484375 17.65625 44.136719 17.65625 61.792969zm0 0" fill="#586270"/><path d="m252.761719 109.011719c-106.753907-117.6875-182.140625-108.863281-182.140625-108.863281 67.027344 34.519531 147.253906 136.679687 147.253906 136.679687s97.703125 93.988281 125.519531 164.085937c0 0 16.125-74.210937-90.632812-191.902343zm0 0" fill="#bddcf3"/><path d="m252.761719 109.011719c4.078125 4.492187 7.945312 8.90625 11.652343 13.242187l6.75-6.125c7.222657-6.554687 7.761719-17.71875 1.210938-24.941406-6.570312-7.199219-17.734375-7.714844-24.9375-1.144531l-6.753906 6.125c3.992187 4.097656 8 8.351562 12.078125 12.84375zm0 0" fill="#dc6c33"/><path d="m282.484375 273.65625s-26.484375-17.65625-44.140625-17.65625c-17.652344 0-8.828125 44.136719-8.828125 44.136719s35.3125-26.480469 52.96875-26.480469zm0 0" fill="#a5b4b4"/><path d="m370.757812 247.171875s17.65625-26.480469 8.828126-44.136719c0 0 26.484374 17.65625 26.484374 35.308594 0 17.65625-35.3125 8.828125-35.3125 8.828125zm0 0" fill="#a5b4b4"/><path d="m344.277344 158.898438c-4.875 0-8.828125-3.953126-8.828125-8.828126v-17.65625c0-4.875 3.953125-8.828124 8.828125-8.828124s8.828125 3.953124 8.828125 8.828124v17.65625c0 4.875-3.953125 8.828126-8.828125 8.828126zm0 0" fill="#f6db6d"/><path d="m370.757812 176.550781c-3.058593 0-5.898437-1.585937-7.503906-4.1875-1.609375-2.601562-1.753906-5.847656-.386718-8.585937l8.828124-17.652344c2.179688-4.367188 7.480469-6.136719 11.847657-3.957031 4.363281 2.179687 6.132812 7.484375 3.953125 11.847656l-8.828125 17.65625c-1.496094 2.996094-4.558594 4.886719-7.910157 4.878906zm0 0" fill="#f6db6d"/><path d="m217.875 136.828125s-4.292969-5.445313-11.644531-14.195313l-174.558594 163.097657c-7.222656 6.554687-7.765625 17.71875-1.210937 24.941406 6.550781 7.226563 17.71875 7.769531 24.941406 1.214844l174.496094-163.078125c-7.441407-7.566406-12.023438-11.980469-12.023438-11.980469zm0 0" fill="#dc6c33"/></svg>